<svg xmlns="http://www.w3.org/2000/svg" width="60" height="60" viewBox="0 0 60 60">
  <g id="figma" transform="translate(-3884 -8071)">
    <g id="zeplin" transform="translate(40 61)">
      <g id="사각형_264" data-name="사각형 264" transform="translate(3844 8010)" fill="none" stroke="#fff" stroke-width="2">
        <rect width="60" height="60" rx="15" stroke="none"/>
        <rect x="1" y="1" width="58" height="58" rx="14" fill="none"/>
      </g>
    </g>
    <path id="figma_logo_thin_icon_171788" d="M80.8,36.525A7.663,7.663,0,0,0,77.378,22H63.661a7.663,7.663,0,0,0-3.418,14.524,7.661,7.661,0,0,0,0,13.717A7.664,7.664,0,1,0,71.327,57.1v-9.02A7.662,7.662,0,1,0,80.8,36.525Zm2.634-6.858a6.058,6.058,0,0,1-6.048,6.051H71.327v-12.1h6.052A6.058,6.058,0,0,1,83.43,29.666ZM72.682,37.331a7.73,7.73,0,0,0-1.355,1.355V37.331ZM57.61,29.666a6.058,6.058,0,0,1,6.052-6.052h6.052v12.1H63.657a6.058,6.058,0,0,1-6.048-6.051Zm6.052,33.485a6.051,6.051,0,1,1,0-12.1h6.052V57.1A6.058,6.058,0,0,1,63.661,63.151Zm6.052-13.717H63.661a6.051,6.051,0,1,1,0-12.1h6.055Zm7.665,0a6.051,6.051,0,0,1-.008-12.1h.012a6.051,6.051,0,0,1,0,12.1Z" transform="translate(3843.005 8056.999)" fill="#fff"/>
  </g>
</svg>
