<svg id="eKIH7Lp1R9i1" xmlns="http://www.w3.org/2000/svg" xmlns:xlink="http://www.w3.org/1999/xlink" viewBox="0 0 1065.289000 369.307000" shape-rendering="geometricPrecision" text-rendering="geometricPrecision"><style><![CDATA[#eKIH7Lp1R9i2 {animation: eKIH7Lp1R9i2_c_o 4918.032786885246ms linear 1 normal forwards}@keyframes eKIH7Lp1R9i2_c_o { 0% {opacity: 1} 43.333333% {opacity: 1} 46.666667% {opacity: 0.600000} 100% {opacity: 0.600000}} #eKIH7Lp1R9i3 {animation: eKIH7Lp1R9i3_s_do 4918.032786885246ms linear 1 normal forwards}@keyframes eKIH7Lp1R9i3_s_do { 0% {stroke-dashoffset: 2225.350000} 6.666667% {stroke-dashoffset: 0} 100% {stroke-dashoffset: 0}} #eKIH7Lp1R9i4 {animation: eKIH7Lp1R9i4_s_do 4918.032786885246ms linear 1 normal forwards}@keyframes eKIH7Lp1R9i4_s_do { 0% {stroke-dashoffset: 740.930000} 6.666667% {stroke-dashoffset: 740.930000} 10% {stroke-dashoffset: 0} 100% {stroke-dashoffset: 0}} #eKIH7Lp1R9i5 {animation: eKIH7Lp1R9i5_s_do 4918.032786885246ms linear 1 normal forwards}@keyframes eKIH7Lp1R9i5_s_do { 0% {stroke-dashoffset: 754.150000} 10% {stroke-dashoffset: 754.150000} 13.333333% {stroke-dashoffset: 0} 100% {stroke-dashoffset: 0}} #eKIH7Lp1R9i6 {animation: eKIH7Lp1R9i6_s_do 4918.032786885246ms linear 1 normal forwards}@keyframes eKIH7Lp1R9i6_s_do { 0% {stroke-dashoffset: 1114.570000} 13.333333% {stroke-dashoffset: 1114.570000} 20% {stroke-dashoffset: 0} 100% {stroke-dashoffset: 0}} #eKIH7Lp1R9i7 {animation: eKIH7Lp1R9i7_s_do 4918.032786885246ms linear 1 normal forwards}@keyframes eKIH7Lp1R9i7_s_do { 0% {stroke-dashoffset: 1379.110000} 20% {stroke-dashoffset: 1379.110000} 26.666667% {stroke-dashoffset: 0} 100% {stroke-dashoffset: 0}} #eKIH7Lp1R9i8 {animation: eKIH7Lp1R9i8_s_do 4918.032786885246ms linear 1 normal forwards}@keyframes eKIH7Lp1R9i8_s_do { 0% {stroke-dashoffset: 740.930000} 26.666667% {stroke-dashoffset: 740.930000} 30% {stroke-dashoffset: 0} 100% {stroke-dashoffset: 0}} #eKIH7Lp1R9i9 {animation: eKIH7Lp1R9i9_s_do 4918.032786885246ms linear 1 normal forwards}@keyframes eKIH7Lp1R9i9_s_do { 0% {stroke-dashoffset: 713.350000} 30% {stroke-dashoffset: 713.350000} 36.666667% {stroke-dashoffset: 0} 100% {stroke-dashoffset: 0}} #eKIH7Lp1R9i10 {animation: eKIH7Lp1R9i10_s_do 4918.032786885246ms linear 1 normal forwards}@keyframes eKIH7Lp1R9i10_s_do { 0% {stroke-dashoffset: 576.320000} 36.666667% {stroke-dashoffset: 576.320000} 40% {stroke-dashoffset: 0} 100% {stroke-dashoffset: 0}} #eKIH7Lp1R9i11 {animation: eKIH7Lp1R9i11_s_do 4918.032786885246ms linear 1 normal forwards}@keyframes eKIH7Lp1R9i11_s_do { 0% {stroke-dashoffset: 740.930000} 40% {stroke-dashoffset: 740.930000} 43.333333% {stroke-dashoffset: 0} 100% {stroke-dashoffset: 0}}]]></style><g id="eKIH7Lp1R9i2" transform="matrix(1 0 0 1 -2086 -1659.22000000000003)"><path id="eKIH7Lp1R9i3" d="M65.450000,45.100000C65.450000,55.275000,70.125000,62.150000,77.550000,62.150000C79.052027,62.118562,80.538609,61.839828,81.950000,61.325000C77,60.500000,77.275000,56.375000,77.275000,51.150000C77.275000,39.875000,96.250000,8.250000,122.100000,-27.775000C197.175000,-41.800000,351.450000,-102.300000,351.450000,-174.625000C351.450000,-219.725000,285.450000,-231.275000,255.750000,-231.275000C113.575000,-231.275000,14.575000,-149.600000,14.575000,-112.200000C14.575000,-91.575000,29.700000,-86.075000,49.225000,-86.075000C53.625000,-86.075000,53.625000,-86.350000,53.625000,-86.350000C46.475000,-86.900000,33.275000,-93.775000,33.275000,-105.050000C33.275000,-140.800000,156.750000,-223.300000,253.825000,-223.300000C302.500000,-223.300000,337.975000,-208.725000,337.975000,-182.600000C337.975000,-138.600000,223.575000,-77.825000,139.700000,-51.700000C186.725000,-114.400000,245.850000,-180.950000,262.075000,-180.950000C265.121130,-181.022194,268.005077,-179.580220,269.775000,-177.100000C268.125000,-188.375000,257.125000,-198,247.225000,-198C226.325000,-198,153.175000,-114.675000,106.425000,-42.900000C96.676171,-40.679259,86.722349,-39.481114,76.725000,-39.325000C71.500000,-39.325000,69.850000,-40.975000,69.850000,-42.350000C69.850000,-54.450000,98.725000,-72.325000,107.250000,-77.275000C107.030564,-77.486425,106.727404,-77.587478,106.425000,-77.550000C99.550000,-77.550000,59.675000,-55.550000,59.675000,-40.700000C59.675000,-30.525000,73.425000,-24.750000,94.875000,-24.750000C77.275000,4.400000,65.450000,30.250000,65.450000,45.100000Z" transform="matrix(1 0 0 1 2072.92999999999984 1892)" fill="none" stroke="rgb(255,255,255)" stroke-width="3" stroke-dashoffset="2225.350000" stroke-dasharray="2225.350000"/><path id="eKIH7Lp1R9i4" d="M117.150000,-103.125000C118.250000,-103.125000,119.075000,-103.125000,117.700000,-103.950000C115.775000,-105.600000,111.375000,-108.625000,100.925000,-108.625000C57.475000,-108.625000,-2.750000,-63.800000,-2.750000,-18.975000C-2.561814,-7.371654,6.562626,2.112961,18.150000,2.750000C47.300000,4.400000,104.225000,-35.200000,111.650000,-71.775000C114.315621,-70.933668,117.107065,-70.561475,119.900000,-70.675000C125.402638,-70.671275,130.873733,-71.505848,136.125000,-73.150000C149.600000,-77.550000,160.600000,-86.625000,161.975000,-90.475000C158.950000,-90.750000,148.775000,-80.025000,130.350000,-78.375000C119.350000,-77.550000,112.750000,-83.875000,107.525000,-92.400000C106.975000,-93.225000,103.950000,-95.425000,101.200000,-95.150000C97.625000,-94.875000,89.375000,-86.625000,88.550000,-83.875000C87.450000,-81.125000,90.200000,-72.875000,91.575000,-70.400000C73.150000,-42.350000,33.825000,1.650000,18.425000,-4.675000C3.025000,-11.275000,60.500000,-103.950000,110.275000,-103.950000C112.200000,-103.950000,114.400000,-103.400000,117.150000,-103.125000Z" transform="matrix(1 0 0 1 2329.25000000000000 1892)" fill="none" stroke="rgb(255,255,255)" stroke-width="3" stroke-dashoffset="740.930000" stroke-dasharray="740.930000"/><path id="eKIH7Lp1R9i5" d="M26.950000,-73.150000C15.950000,-57.475000,3.575000,-38.500000,-3.300000,-22.825000C-6.600000,-16.500000,-7.975000,-11.275000,-7.425000,-8.800000C-5.500000,-1.100000,1.100000,7.425000,9.075000,5.500000C3.025000,2.750000,19.525000,-21.450000,33.550000,-36.575000C52.250000,-57.200000,65.175000,-68.200000,90.475000,-83.050000C83.325000,-74.800000,74.525000,-58.850000,74.525000,-51.150000C74.525000,-47.850000,82.775000,-38.225000,87.725000,-38.225000C106.700000,-38.225000,139.700000,-69.025000,144.650000,-75.625000C144.375000,-76.175000,142.725000,-75.900000,142.450000,-75.625000C125.400000,-60.500000,106.425000,-48.125000,93.225000,-47.025000C102.300000,-68.475000,125.125000,-88.550000,131.175000,-94.875000C133.100000,-97.075000,121.825000,-108.900000,118.800000,-108.625000C113.025000,-108.075000,104.775000,-103.400000,94.050000,-95.700000C70.400000,-78.650000,42.900000,-55.550000,28.325000,-36.575000C34.100000,-46.750000,43.725000,-59.675000,51.150000,-69.575000C59.400000,-80.575000,69.025000,-91.300000,73.150000,-91.025000C75.350000,-90.750000,76.175000,-89.375000,76.175000,-90.475000C76.175000,-97.350000,65.725000,-108.075000,59.125000,-108.075000C57.727719,-108.039786,56.378462,-107.557908,55.275000,-106.700000C48.400000,-101.200000,36.575000,-87.175000,26.950000,-73.150000Z" transform="matrix(1 0 0 1 2443.03999999999996 1892)" fill="none" stroke="rgb(255,255,255)" stroke-width="3" stroke-dashoffset="754.150000" stroke-dasharray="754.150000"/><path id="eKIH7Lp1R9i6" d="M78.650000,-154.275000C47.850000,-150.700000,17.600000,-143,18.700000,-130.625000C19.525000,-121.825000,28.875000,-116.600000,33.275000,-116.600000C26.125000,-120.725000,42.350000,-133.925000,68.475000,-139.150000C58.300000,-125.675000,50.325000,-113.575000,42.900000,-102.300000C9.075000,-50.050000,-3.300000,-23.100000,-3.300000,-14.850000C-3.300000,-11.825000,-2.750000,-11.275000,-2.475000,-10.725000C-0.825000,-6.600000,5.225000,-0.825000,7.425000,0.275000C9.900000,1.650000,12.650000,2.750000,16.225000,1.375000C32.725000,-4.675000,80.575000,-54.725000,94.050000,-70.125000C94.486875,-70.658207,94.417755,-71.442753,93.894380,-71.891360C93.371005,-72.339967,92.585118,-72.288285,92.125000,-71.775000C75.900000,-56.925000,30.250000,-12.100000,18.425000,-13.475000C25.025000,-31.075000,45.650000,-66,69.575000,-102.300000C80.575000,-118.525000,89.650000,-132.275000,99.825000,-144.925000C145.750000,-151.800000,196.075000,-152.075000,250.525000,-147.400000C253.825000,-147.125000,252.725000,-147.675000,250.525000,-148.225000C211.200000,-156.475000,153.175000,-158.675000,108.900000,-156.475000C121,-172.150000,137.225000,-194.150000,146.025000,-190.025000C151.250000,-187,140.250000,-202.950000,124.850000,-202.125000C122.375000,-202.125000,118.800000,-199.925000,114.675000,-196.625000C107.800000,-191.125000,100.100000,-182.325000,78.650000,-154.275000Z" transform="matrix(1 0 0 1 2561.80000000000018 1892)" fill="none" stroke="rgb(255,255,255)" stroke-width="3" stroke-dashoffset="1114.570000" stroke-dasharray="1114.570000"/><path id="eKIH7Lp1R9i7" d="M93.775000,-171.600000C72.600000,-144.375000,44.825000,-104.500000,18.700000,-62.700000C10.450000,-62.700000,-0.275000,-48.125000,7.150000,-42.075000C-37.675000,33.825000,-69.575000,105.875000,-68.750000,121.275000C-68.475000,125.950000,-61.875000,135.300000,-56.375000,135.025000L-55.550000,135.025000C-43.725000,134.475000,25.025000,80.025000,40.150000,1.650000C41.028945,-3.529544,41.488769,-8.771534,41.525000,-14.025000C41.525000,-25.300000,39.600000,-36.025000,37.675000,-41.525000C41.800000,-42.350000,51.150000,-47.025000,56.375000,-49.775000C79.200000,-61.875000,105.600000,-78.650000,114.125000,-86.900000L114.125000,-87.450000C114.077289,-88.188727,113.488727,-88.777289,112.750000,-88.825000C112.200000,-88.825000,111.925000,-88.550000,111.650000,-88C97.900000,-76.450000,58.300000,-56.375000,38.225000,-49.775000L37.950000,-50.325000C68.475000,-97.900000,88,-127.600000,108.900000,-153.725000C120.450000,-168.575000,138.600000,-194.425000,147.950000,-190.025000C153.175000,-187,142.175000,-202.950000,126.500000,-202.125000C124.300000,-202.125000,120.725000,-199.925000,116.325000,-196.625000C110,-191.125000,102.025000,-182.325000,93.775000,-171.600000ZM-50.600000,118.525000C-51.150000,118.525000,-51.150000,117.150000,-50.050000,114.950000C-38.500000,86.350000,0,9.625000,31.625000,-40.975000C35.200000,-36.300000,36.850000,-26.125000,36.850000,-17.325000C36.884852,-14.097613,36.608575,-10.874379,36.025000,-7.700000C26.675000,50.050000,-15.400000,93.225000,-47.850000,117.425000C-49.500000,118.525000,-50.050000,118.800000,-50.600000,118.525000Z" transform="matrix(1 0 0 1 2639.26999999999998 1892)" fill="none" stroke="rgb(255,255,255)" stroke-width="3" stroke-dashoffset="1379.110000" stroke-dasharray="1379.110000"/><path id="eKIH7Lp1R9i8" d="M117.150000,-103.125000C118.250000,-103.125000,119.075000,-103.125000,117.700000,-103.950000C115.775000,-105.600000,111.375000,-108.625000,100.925000,-108.625000C57.475000,-108.625000,-2.750000,-63.800000,-2.750000,-18.975000C-2.561814,-7.371654,6.562626,2.112961,18.150000,2.750000C47.300000,4.400000,104.225000,-35.200000,111.650000,-71.775000C114.315621,-70.933668,117.107065,-70.561475,119.900000,-70.675000C125.402638,-70.671275,130.873733,-71.505848,136.125000,-73.150000C149.600000,-77.550000,160.600000,-86.625000,161.975000,-90.475000C158.950000,-90.750000,148.775000,-80.025000,130.350000,-78.375000C119.350000,-77.550000,112.750000,-83.875000,107.525000,-92.400000C106.975000,-93.225000,103.950000,-95.425000,101.200000,-95.150000C97.625000,-94.875000,89.375000,-86.625000,88.550000,-83.875000C87.450000,-81.125000,90.200000,-72.875000,91.575000,-70.400000C73.150000,-42.350000,33.825000,1.650000,18.425000,-4.675000C3.025000,-11.275000,60.500000,-103.950000,110.275000,-103.950000C112.200000,-103.950000,114.400000,-103.400000,117.150000,-103.125000Z" transform="matrix(1 0 0 1 2717.25000000000000 1891.21000000000004)" fill="none" stroke="rgb(255,255,255)" stroke-width="3" stroke-dashoffset="740.930000" stroke-dasharray="740.930000"/><path id="eKIH7Lp1R9i9" d="M42.900000,-102.300000C9.350000,-49.775000,-3.300000,-23.100000,-3.300000,-14.850000C-3.300000,-11.825000,-2.750000,-11.275000,-2.475000,-10.725000C-0.825000,-6.600000,5.225000,-0.825000,7.425000,0.275000C9.900000,1.650000,12.650000,2.750000,16.225000,1.375000C32.725000,-4.675000,80.575000,-54.725000,94.050000,-70.125000C94.486875,-70.658207,94.417755,-71.442753,93.894380,-71.891360C93.371005,-72.339967,92.585118,-72.288285,92.125000,-71.775000C75.900000,-56.925000,30.250000,-12.100000,18.425000,-13.475000C25.025000,-31.075000,45.650000,-66,69.575000,-102.300000C83.325000,-122.375000,94.600000,-138.600000,106.425000,-153.725000C118.525000,-168.575000,136.400000,-194.425000,146.025000,-190.025000C151.250000,-187,140.250000,-202.950000,124.850000,-202.125000C122.375000,-202.125000,118.800000,-199.925000,114.675000,-196.625000C107.800000,-191.125000,100.100000,-182.325000,91.850000,-171.600000C77.550000,-152.900000,59.950000,-128.975000,42.900000,-102.300000Z" transform="matrix(1 0 0 1 2845.15999999999985 1892)" fill="none" stroke="rgb(255,255,255)" stroke-width="3" stroke-dashoffset="713.350000" stroke-dasharray="713.350000"/><path id="eKIH7Lp1R9i10" d="M7.150000,1.925000C24.200000,0.550000,67.925000,-44.275000,91.850000,-70.125000C92.675000,-70.950000,91.300000,-73.150000,89.375000,-71.775000C72.600000,-55.550000,32.450000,-17.325000,15.675000,-12.925000C18.975000,-24.200000,56.650000,-86.900000,67.925000,-85.800000C70.125000,-85.525000,71.500000,-84.150000,71.500000,-85.250000C71.500000,-92.125000,60.500000,-103.125000,54.175000,-103.125000C52.634159,-103.151560,51.147464,-102.556882,50.050000,-101.475000C32.450000,-87.450000,-7.425000,-27.500000,-7.425000,-11.550000C-7.425000,-6.600000,-0.550000,0.275000,3.850000,1.650000C4.935928,1.867106,6.043115,1.959372,7.150000,1.925000ZM79.750000,-145.200000C72.600000,-143,62.150000,-125.125000,62.425000,-117.150000C62.700000,-112.200000,68.475000,-106.425000,72.325000,-111.375000C75.625000,-116.050000,88.275000,-127.325000,92.950000,-129.250000C94.777770,-130.039759,96.830455,-130.137506,98.725000,-129.525000C99.825000,-129.525000,98.175000,-133.650000,95.700000,-136.400000C92.125000,-140.525000,86.075000,-146.025000,79.750000,-145.200000Z" transform="matrix(1 0 0 1 2915.65000000000009 1892)" fill="none" stroke="rgb(255,255,255)" stroke-width="3" stroke-dashoffset="576.320000" stroke-dasharray="576.320000"/><path id="eKIH7Lp1R9i11" d="M117.150000,-103.125000C118.250000,-103.125000,119.075000,-103.125000,117.700000,-103.950000C115.775000,-105.600000,111.375000,-108.625000,100.925000,-108.625000C57.475000,-108.625000,-2.750000,-63.800000,-2.750000,-18.975000C-2.561814,-7.371654,6.562626,2.112961,18.150000,2.750000C47.300000,4.400000,104.225000,-35.200000,111.650000,-71.775000C114.315621,-70.933668,117.107065,-70.561475,119.900000,-70.675000C125.402638,-70.671275,130.873733,-71.505848,136.125000,-73.150000C149.600000,-77.550000,160.600000,-86.625000,161.975000,-90.475000C158.950000,-90.750000,148.775000,-80.025000,130.350000,-78.375000C119.350000,-77.550000,112.750000,-83.875000,107.525000,-92.400000C106.975000,-93.225000,103.950000,-95.425000,101.200000,-95.150000C97.625000,-94.875000,89.375000,-86.625000,88.550000,-83.875000C87.450000,-81.125000,90.200000,-72.875000,91.575000,-70.400000C73.150000,-42.350000,33.825000,1.650000,18.425000,-4.675000C3.025000,-11.275000,60.500000,-103.950000,110.275000,-103.950000C112.200000,-103.950000,114.400000,-103.400000,117.150000,-103.125000Z" transform="matrix(1 0 0 1 2987.25000000000000 1892)" fill="none" stroke="rgb(255,255,255)" stroke-width="3" stroke-dashoffset="740.930000" stroke-dasharray="740.930000"/></g></svg>